<svg xmlns="http://www.w3.org/2000/svg" viewBox="0 0 48 48"><defs><style>
    .cls-3{fill:#505572}.cls-7{fill:#231f20}
</style>
</defs><g id="Inovation"><path d="M39 17a15 15 0 1 0-29.984.684C9.459 27.135 19 30.037 19 37v7a2 2 0 0 0 2 2h6a2 2 0 0 0 2-2v-7c0-7.128 10-10 10-20z" style="fill:#ffbc5a" /><path d="M22.565 2.083A15 15 0 0 1 36 17c0 10-10 12.872-10 20v7a2 2 0 0 1-2 2h3a2 2 0 0 0 2-2v-7c0-7.128 10-10 10-20A14.993 14.993 0 0 0 22.565 2.082z" style="fill:#ef9d3a" /><path class="cls-3" d="M19 37v7a2 2 0 0 0 2 2h6a2 2 0 0 0 2-2v-7z" /><path d="M26 37v7a2 2 0 0 1-2 2h3a2 2 0 0 0 2-2v-7z" style="fill:#3d4360" /><rect x="17" y="37" width="14" height="4" rx="2" ry="2" style="fill:#8491c1" /><path d="M29 37h-3a2 2 0 1 1 0 4h3a2 2 0 0 0 0-4z" style="fill:#6c80ad" /><path class="cls-3" d="M26 25h-4a3.003 3.003 0 0 1-3-3 1 1 0 0 1 2 0 1 1 0 0 0 1 1h4a1 1 0 0 0 1-1v-2a1 1 0 0 0-1-1h-4a3.003 3.003 0 0 1-3-3v-2a3.003 3.003 0 0 1 3-3h4a3.003 3.003 0 0 1 3 3 1 1 0 0 1-2 0 1 1 0 0 0-1-1h-4a1 1 0 0 0-1 1v2a1 1 0 0 0 1 1h4a3.003 3.003 0 0 1 3 3v2a3.003 3.003 0 0 1-3 3z" /><path class="cls-3" d="M24 13a1 1 0 0 1-1-1v-2a1 1 0 0 1 2 0v2a1 1 0 0 1-1 1zM24 27a1 1 0 0 1-1-1v-2a1 1 0 0 1 2 0v2a1 1 0 0 1-1 1z" /><path class="cls-7" d="M39.999 16.996a15.998 15.998 0 1 0-31.98.727c.251 5.38 3.234 8.756 5.866 11.735 1.998 2.261 3.734 4.25 4.048 6.743A2.984 2.984 0 0 0 18 41.81v2.185a3.003 3.003 0 0 0 3 3h6a3.003 3.003 0 0 0 3-3v-2.184a2.985 2.985 0 0 0 .065-5.611c.314-2.497 2.052-4.486 4.053-6.75 2.757-3.119 5.882-6.654 5.882-12.455zm-13 28h-6a1 1 0 0 1-1-1v-2h8v2a1 1 0 0 1-1 1zm2-5h-10a1 1 0 1 1 0-2h10a1 1 0 0 1 0 2zm-.923-4h-8.154c-.368-3.114-2.39-5.431-4.538-7.862-2.532-2.865-5.149-5.828-5.367-10.506A13.998 13.998 0 1 1 38 16.996c0 5.043-2.736 8.138-5.381 11.131-2.15 2.432-4.174 4.752-4.542 7.87z" /><path class="cls-7" d="M21.999 12.996h4a1 1 0 0 1 1 1 1 1 0 0 0 2 0 3.003 3.003 0 0 0-3-3h-1v-1a1 1 0 0 0-2 0v1h-1a3.003 3.003 0 0 0-3 3v2a3.003 3.003 0 0 0 3 3h4a1 1 0 0 1 1 1v2a1 1 0 0 1-1 1h-4a1 1 0 0 1-1-1 1 1 0 0 0-2 0 3.003 3.003 0 0 0 3 3h1v1a1 1 0 0 0 2 0v-1h1a3.003 3.003 0 0 0 3-3v-2a3.003 3.003 0 0 0-3-3h-4a1 1 0 0 1-1-1v-2a1 1 0 0 1 1-1z" /></g></svg>